<svg xmlns="http://www.w3.org/2000/svg" width="12" height="12" fill="none" viewBox="0 0 12 12"><path fill="#fff" fill-rule="evenodd" d="M11 6c0-.842-.565-1.5-1.5-1.5H7.963l.014-.038.091-.241V4.22l.08-.211c.096-.255.165-.46.221-.664A3.2 3.2 0 0 0 8.5 2.5c.001-.736-.453-1.194-1.125-1.39A3 3 0 0 0 6.5 1h-.24l-.15.187c-.17.212-.502.592-.886 1.031-.709.81-1.59 1.817-1.939 2.324A1 1 0 0 0 3 4.5H2a1 1 0 0 0-1 1V10a1 1 0 0 0 1 1h1a1 1 0 0 0 .827-.437q.227.147.505.246c.42.15.838.197 1.185.19H9c1.378 0 2-2.028 2-5M4.668 9.867C4.226 9.71 4 9.451 4 9V5.5a.8.8 0 0 1 .07-.34c.088-.204.881-1.109 1.632-1.966.388-.443.765-.872 1.028-1.187.126.01.244.029.365.064.286.083.405.203.405.429q0 .236-.095.579c-.047.17-.108.35-.194.58l-.074.198v.001l-.098.257a4 4 0 0 0-.137.423c-.124.5 0 .962.598.962h2c.346 0 .5.18.5.5 0 2.395-.492 4-1 4H5.482a2.4 2.4 0 0 1-.813-.133M2 10V5.5h1V10Z" clip-rule="evenodd"/></svg>