<svg width="20" height="20" viewBox="0 0 20 20" fill="none" xmlns="http://www.w3.org/2000/svg">
<path fill-rule="evenodd" clip-rule="evenodd" d="M7.50004 3.3335H17.5C18.4205 3.3335 19.1667 4.07969 19.1667 5.00016V15.8335C19.1667 16.754 18.4205 17.5002 17.5 17.5002L7.50004 17.5002H5.83337L2.50004 17.5002C1.57957 17.5002 0.833374 16.754 0.833374 15.8335V5.00016C0.833374 4.07969 1.57957 3.3335 2.50004 3.3335H5.83337H7.50004ZM5.83337 5.00016H2.50004V7.50016H5.83337V5.00016ZM7.50004 7.50016V5.00016H17.5V7.50016H7.50004ZM5.83337 9.16683H2.50004V11.6668H5.83337V9.16683ZM7.50004 11.6668V9.16683H17.5V11.6668H7.50004ZM5.83337 13.3335H2.50004V15.8335H5.83337V13.3335ZM7.50004 15.8335V13.3335H17.5V15.8335H7.50004Z" fill="#69748C"/>
</svg>
